<?xml version="1.0" encoding="UTF-8" standalone="no"?>
<!-- Created with Inkscape (http://www.inkscape.org/) -->

<svg
   width="20"
   height="20"
   viewBox="0 0 5.2916665 5.2916666"
   version="1.1"
   id="svg1"
   sodipodi:docname="lsc-img.svg"
   inkscape:version="1.3 (0e150ed, 2023-07-21)"
   xmlns:inkscape="http://www.inkscape.org/namespaces/inkscape"
   xmlns:sodipodi="http://sodipodi.sourceforge.net/DTD/sodipodi-0.dtd"
   xmlns="http://www.w3.org/2000/svg"
   xmlns:svg="http://www.w3.org/2000/svg">
  <sodipodi:namedview
     id="namedview1"
     pagecolor="#ffffff"
     bordercolor="#000000"
     borderopacity="0.25"
     inkscape:showpageshadow="2"
     inkscape:pageopacity="0.0"
     inkscape:pagecheckerboard="0"
     inkscape:deskcolor="#d1d1d1"
     inkscape:document-units="mm"
     inkscape:zoom="22.627417"
     inkscape:cx="7.2257474"
     inkscape:cy="2.6295533"
     inkscape:window-width="1920"
     inkscape:window-height="1021"
     inkscape:window-x="0"
     inkscape:window-y="0"
     inkscape:window-maximized="1"
     inkscape:current-layer="layer1" />
  <defs
     id="defs1" />
  <g
     inkscape:label="Layer 1"
     inkscape:groupmode="layer"
     id="layer1">
    <rect
       style="fill:#86e7d0;fill-opacity:1;stroke:none;stroke-width:0.0387481;stroke-dasharray:none;stroke-opacity:1"
       id="rect5"
       width="3.3202789"
       height="4.8866119"
       x="0.98569387"
       y="0.20749661"
       ry="0.12273622" />
    <rect
       style="fill:#ffffff;fill-opacity:1;stroke:none;stroke-width:0.0213592;stroke-dasharray:none;stroke-opacity:1"
       id="rect6"
       width="2.4891646"
       height="1.9805988"
       x="1.4009315"
       y="0.52564824"
       ry="0.049746364" />
    <g
       id="g1"
       style="fill:none;fill-opacity:1;stroke:#1a8a6e;stroke-width:0.140341;stroke-dasharray:none;stroke-opacity:1"
       transform="matrix(0.83275459,0,0,0.94000068,0.44070636,0.09948666)">
      <path
         style="fill:none;fill-opacity:1;stroke:#1a8a6e;stroke-width:0.140341;stroke-dasharray:none;stroke-opacity:1"
         id="path6"
         sodipodi:type="arc"
         sodipodi:cx="1.5065068"
         sodipodi:cy="1.2768388"
         sodipodi:rx="0.28369337"
         sodipodi:ry="0.53120327"
         sodipodi:start="0"
         sodipodi:end="3.1415927"
         sodipodi:open="true"
         sodipodi:arc-type="arc"
         d="m 1.7902002,1.2768388 a 0.28369337,0.53120327 0 0 1 -0.1418467,0.4600355 0.28369337,0.53120327 0 0 1 -0.2836934,0 0.28369337,0.53120327 0 0 1 -0.1418467,-0.4600355" />
      <path
         style="fill:none;fill-opacity:1;stroke:#1a8a6e;stroke-width:0.140341;stroke-dasharray:none;stroke-opacity:1"
         id="path7"
         sodipodi:type="arc"
         sodipodi:cx="2.076637"
         sodipodi:cy="1.2688619"
         sodipodi:rx="0.28369337"
         sodipodi:ry="0.53120327"
         sodipodi:start="0"
         sodipodi:end="3.1415927"
         sodipodi:open="true"
         sodipodi:arc-type="arc"
         d="m 2.3603304,1.2688619 a 0.28369337,0.53120327 0 0 1 -0.1418467,0.4600355 0.28369337,0.53120327 0 0 1 -0.2836934,0 0.28369337,0.53120327 0 0 1 -0.1418466,-0.4600355" />
      <path
         style="fill:none;fill-opacity:1;stroke:#1a8a6e;stroke-width:0.140341;stroke-dasharray:none;stroke-opacity:1"
         id="path8"
         sodipodi:type="arc"
         sodipodi:cx="2.6482306"
         sodipodi:cy="1.2688619"
         sodipodi:rx="0.28369337"
         sodipodi:ry="0.53120327"
         sodipodi:start="0"
         sodipodi:end="3.1415927"
         sodipodi:open="true"
         sodipodi:arc-type="arc"
         d="m 2.9319239,1.2688619 a 0.28369337,0.53120327 0 0 1 -0.1418467,0.4600355 0.28369337,0.53120327 0 0 1 -0.2836933,0 0.28369337,0.53120327 0 0 1 -0.1418467,-0.4600355" />
      <path
         style="fill:none;fill-opacity:1;stroke:#1a8a6e;stroke-width:0.140341;stroke-dasharray:none;stroke-opacity:1"
         id="path9"
         sodipodi:type="arc"
         sodipodi:cx="3.2198246"
         sodipodi:cy="1.2688619"
         sodipodi:rx="0.28369337"
         sodipodi:ry="0.53120327"
         sodipodi:start="0"
         sodipodi:end="3.1415927"
         sodipodi:open="true"
         sodipodi:arc-type="arc"
         d="m 3.5035179,1.2688619 a 0.28369337,0.53120327 0 0 1 -0.1418467,0.4600355 0.28369337,0.53120327 0 0 1 -0.2836933,0 0.28369337,0.53120327 0 0 1 -0.1418467,-0.4600355" />
      <path
         style="fill:none;fill-opacity:1;stroke:#1a8a6e;stroke-width:0.140341;stroke-dasharray:none;stroke-opacity:1"
         id="path10"
         sodipodi:type="arc"
         sodipodi:cx="3.7883937"
         sodipodi:cy="1.2688619"
         sodipodi:rx="0.28369337"
         sodipodi:ry="0.53120327"
         sodipodi:start="0"
         sodipodi:end="3.1415927"
         sodipodi:open="true"
         sodipodi:arc-type="arc"
         d="m 4.0720871,1.2688619 a 0.28369337,0.53120327 0 0 1 -0.1418467,0.4600355 0.28369337,0.53120327 0 0 1 -0.2836934,0 0.28369337,0.53120327 0 0 1 -0.1418466,-0.4600355" />
    </g>
    <ellipse
       style="fill:#ffffff;fill-opacity:1;stroke:none;stroke-width:0.0331883;stroke-dasharray:none;stroke-opacity:1"
       id="path11"
       cx="2.6858644"
       cy="3.7994986"
       rx="1.0113822"
       ry="1.0635437" />
    <path
       id="rect11"
       style="fill:#86e7d0;fill-opacity:1;stroke:none;stroke-width:0.0207317;stroke-dasharray:none;stroke-opacity:1"
       d="M 2.6205119 3.102653 C 2.5908427 3.102653 2.5667684 3.1262105 2.5667684 3.1558797 L 2.5667684 4.4431396 C 2.5667684 4.4728089 2.5908427 4.4963664 2.6205119 4.4963664 L 2.7512533 4.4963664 C 2.7809225 4.4963664 2.8049967 4.4728089 2.8049967 4.4431396 L 2.8049967 3.4979777 A 0.18813945 0.19177188 0 0 0 2.9693278 3.3078084 A 0.18813945 0.19177188 0 0 0 2.7863932 3.1160889 C 2.7769573 3.107752 2.7648924 3.102653 2.7512533 3.102653 L 2.6205119 3.102653 z " />
    <rect
       style="fill:none;fill-opacity:1;stroke:#575757;stroke-width:0.0303585;stroke-dasharray:none;stroke-opacity:1"
       id="rect12"
       width="0.0056614131"
       height="0.010175075"
       x="2.8995411"
       y="4.5548849"
       ry="0.0025437688" />
  </g>
</svg>
